<svg width="32" height="32" viewBox="0 0 32 32" fill="none" xmlns="http://www.w3.org/2000/svg">
<path fill-rule="evenodd" clip-rule="evenodd" d="M9.18204 3.8693L2.80739 14.167L0.744052 15.0337L0.0195312 13.0211C0.0195312 13.0211 0.0774615 11.5625 0.339357 10.9116C1.53223 7.94974 2.79399 5.01287 4.05554 2.07676C4.28328 1.54581 4.93903 0.576172 4.93903 0.576172L9.18204 3.8693ZM11.4348 30.7647C11.504 28.0876 11.8792 27.5711 14.3753 26.9211C16.1429 26.4606 17.9254 26.0552 19.708 25.6497L19.7087 25.6496C20.6145 25.4435 21.5203 25.2375 22.4242 25.0242C22.6048 24.9815 22.7822 24.9214 22.9591 24.8615L22.9592 24.8615C23.2108 24.7762 23.4618 24.6912 23.7205 24.6567C24.2654 24.5836 24.8153 24.5484 25.3653 24.5131L25.3654 24.5131C25.5966 24.4983 25.8279 24.4835 26.0589 24.4659C25.956 24.7196 25.8717 24.9906 25.7874 25.2616C25.5969 25.8743 25.4063 26.4872 25.0007 26.9012C24.2988 27.6173 23.2749 28.2167 22.2847 28.4557C19.7379 29.0696 17.168 29.5926 14.5249 30.1304L14.5247 30.1305C13.5065 30.3377 12.4775 30.5471 11.4348 30.7647ZM7.01729 20.7399C6.84553 21.2635 6.67381 21.787 6.46243 22.2671L7.56336 23.2727C8.21353 22.9217 8.87977 22.5913 9.54596 22.261C11.0374 21.5214 12.5285 20.7819 13.8386 19.8116C16.5964 17.7695 19.1968 15.4879 21.6004 13.0629C22.0113 12.6482 21.9497 11.7918 21.8882 10.9356C21.8599 10.5427 21.8316 10.1499 21.849 9.7997C21.5221 9.83191 21.1707 9.83011 20.8192 9.82832C20.053 9.82442 19.2867 9.82051 18.7746 10.1687C15.265 12.5537 11.7567 14.9846 8.56888 17.7482C7.77159 18.4403 7.39437 19.5903 7.01729 20.7399Z" fill="#25222D"/>
</svg>
