<svg width="52" height="48" viewBox="0 0 52 48" fill="none" xmlns="http://www.w3.org/2000/svg">
<path d="M51.7345 7.33813C51.5747 7.2501 51.3853 7.29509 51.2611 7.44377L39.6819 21.4653V0.555287C39.6819 0.336167 39.5841 0.142483 39.4304 0.0544472C39.2767 -0.0414162 39.0951 -0.0062027 38.9631 0.124874L26.0039 13.6201L13.0369 0.124874C12.9049 -0.0062027 12.7233 -0.0414162 12.5696 0.0544472C12.4159 0.142483 12.3181 0.336167 12.3181 0.555287V21.4653L0.746694 7.44377C0.620951 7.29509 0.433113 7.2501 0.265457 7.33813C0.105562 7.42617 0 7.62768 0 7.8468L0 47.4444C0 47.7515 0.1956 47.998 0.439323 47.998H12.7574C13.0012 47.998 13.1968 47.7515 13.1968 47.4444L13.1968 24.0654L14.6405 25.8144L15.0037 26.2546L20.3858 32.7733L20.895 33.3974L25.6841 39.1962C25.7043 39.2216 25.726 39.249 25.7539 39.2666C25.7741 39.294 25.8021 39.3097 25.83 39.3194C25.9418 39.3801 26.0598 39.3801 26.1715 39.3194C26.1995 39.3116 26.2274 39.294 26.2476 39.2666C26.2678 39.2588 26.2895 39.2314 26.3035 39.2138L26.3175 39.1962L31.2245 33.2487L31.712 32.652L36.9963 26.2565L37.3595 25.8164L38.8032 24.0673V47.4463C38.8032 47.7535 39.005 48 39.2426 48H51.5607C51.8044 48 52 47.7535 52 47.4463V7.8468C52 7.62768 51.896 7.42421 51.7345 7.33813ZM0.878646 9.1478L6.11482 15.4905L6.11482 46.8907H0.878646L0.878646 9.1478ZM12.3181 46.8907H6.99191L6.99191 16.5547L12.3181 23.003L12.3181 46.8907ZM38.8017 1.72326V11.4759L31.7322 19.5852L26.6854 14.3401L38.8017 1.72326ZM31.0771 20.3404L26.0784 26.0687L20.968 20.2876L26.0008 15.0522L31.0755 20.3404H31.0771ZM13.1968 1.72326L25.3131 14.3401L20.3144 19.5402L13.1968 11.4759V1.72326ZM13.1968 22.5276V12.9511L19.6314 20.2523L15.1559 24.9086L13.1968 22.5276ZM15.797 25.6735L20.2927 20.9997L25.4233 26.8161L20.9618 31.9379L15.7954 25.6735H15.797ZM26.0023 38.0439L21.5967 32.7107L26.0862 27.5634L30.5135 32.5796L26.0039 38.0439H26.0023ZM31.1407 31.8147L26.7351 26.8161L31.7617 21.0525L36.203 25.6735L31.1423 31.8147H31.1407ZM38.8017 22.5276L36.8426 24.9086L32.4152 20.2954L38.8017 12.9687V22.5276ZM39.6803 23.003L45.0065 16.5547L45.0096 16.5508V46.8927H39.6803V23.005V23.003ZM51.1198 46.8907H45.8883V15.4865L45.8914 15.4826L51.1198 9.1478V46.8907Z" fill="#25222D"/>
</svg>
