<svg width="112" height="39" viewBox="0 0 112 39" fill="none" xmlns="http://www.w3.org/2000/svg">
<path fill-rule="evenodd" clip-rule="evenodd" d="M101.513 28.6971C89.488 14.284 71.666 6.87258 54.1837 6.07197C46.1307 5.70331 38.1434 6.69965 30.772 9.14488C19.4438 12.9021 9.55611 19.9707 3.32611 30.5853C2.10589 31.4573 0.327158 29.5242 0 28.2998C6.24253 16.4592 16.8833 8.78505 29.0493 4.26031C36.9652 1.31545 45.6511 -0.0370446 54.4121 0.249201C73.99 0.888654 93.9098 9.65114 107.028 26.2217C106.409 23.569 105.763 20.9258 104.779 18.3982C104.491 17.6704 104.46 16.9824 104.968 16.3518C105.444 15.766 106.152 15.5946 106.845 15.7351C107.676 15.9007 108.109 16.5556 108.412 17.2613C108.707 17.9493 108.945 18.6815 109.126 19.4166C109.784 22.0885 110.42 24.7647 111.052 27.4366C111.319 28.5757 111.577 29.7229 111.808 30.8701C112.141 32.5228 111.926 34.1939 111.244 35.7591C110.879 36.5928 110.609 37.5391 109.773 38.1778C109 38.768 108.373 38.8827 107.661 38.3169C107.39 38.0983 107.091 37.8297 106.961 37.5155C106.421 36.1932 105.317 35.336 104.428 34.2984C102.358 31.876 99.4251 31.2645 96.3694 31.2505C94.4204 31.241 92.4007 31.2704 90.4658 32.0555C89.8188 32.3219 89.0651 31.8363 88.7386 31.1431C88.5301 30.6839 88.6517 29.9319 89.113 29.5684C89.5602 29.2093 90.0694 28.8605 90.6014 28.6905C92.1797 28.1901 93.8155 28.1364 95.4314 28.0422C97.4805 27.9223 99.484 28.1151 101.513 28.6971Z" fill="#25222D"/>
</svg>
