<svg width="108" height="92" viewBox="0 0 108 92" fill="none" xmlns="http://www.w3.org/2000/svg">
<path d="M9.82909 79.0627C10.4722 74.2812 12.3026 70.087 14.6973 66.0863C17.9135 60.7016 21.6101 55.629 25.7326 50.8251C29.1886 46.8065 32.6737 42.8372 36.5811 39.1832C40.6678 35.3555 45.0368 31.832 49.586 28.5421C55.3377 24.3917 61.2638 20.4432 67.607 17.0837C72.0836 14.7122 76.4211 12.1104 80.9269 9.78822C85.7779 7.2897 95.6913 2.65398 95.6913 2.65398C105.209 -1.30111 110.224 1.2016 106.677 3.09208C103.131 4.98257 93.5753 8.47028 87.1909 11.5132C82.3724 13.8107 77.5761 16.1412 72.9031 18.693C68.3344 21.1825 63.8545 23.8044 59.463 26.5664C53.8252 30.1148 48.6055 34.1349 43.5596 38.3645C39.1354 42.0638 35.2291 46.2269 31.6412 50.658C29.2726 53.5957 26.7463 56.4347 24.6141 59.5242C21.4921 64.0313 18.3201 68.5423 16.3823 73.6756C16.0891 74.4513 15.8289 75.2296 15.5844 76.0169C15.5298 76.1849 15.5967 76.386 15.621 76.8109C17.3485 74.128 19.4518 72.0309 21.9478 70.3094C23.6381 69.143 25.3162 67.9208 27.2866 67.1916C27.9518 66.9466 28.7339 66.8988 29.4617 66.9094C30.2066 66.9135 30.9162 67.5726 31.0656 68.1954C31.2804 69.1444 30.9056 70.219 30.0505 70.4568C27.5011 71.1794 25.4579 72.7252 23.5152 74.2554C20.469 76.6539 18.0123 79.5532 17.8334 83.5961C17.7543 85.3285 17.3202 87.0485 17.8113 88.7948C17.9275 89.2112 17.8381 89.7132 17.7378 90.1439C17.4669 91.2659 16.75 91.64 15.5154 91.652C14.1814 91.664 13.1716 90.9262 12.1553 90.3759C10.25 89.3402 8.72968 87.8337 7.77172 85.9174C7.1068 84.5882 6.46842 83.2376 5.84649 81.8883C4.39149 78.7188 2.9371 75.5414 1.50862 72.3505C1.11431 71.4734 0.781292 70.5542 0.539399 69.6344C0.291124 68.6906 0.212321 67.6976 0.914245 66.8837C1.49812 66.2015 2.33961 65.8216 3.27481 66.0366C4.27462 66.2723 4.78121 66.9859 5.06178 67.9401C6.16924 71.6304 7.81297 75.136 9.43961 78.6481C9.48859 78.7616 9.62293 78.8427 9.82148 79.0542L9.82909 79.0627Z" fill="#25222D"/>
</svg>
