<?xml version="1.0" encoding="UTF-8"?><svg id="Laag_2" xmlns="http://www.w3.org/2000/svg" viewBox="0 0 323.08 236.64"><defs><style>.cls-1{fill:#343435;stroke-width:0px;}</style></defs><g id="Layer_1"><path class="cls-1" d="m321.44,36.18c-1-.43-2.17-.22-2.95.52l-71.95,69.13V2.74c0-1.08-.61-2.04-1.56-2.47-.95-.48-2.08-.3-2.9.35l-80.52,66.53L81,.62c-.82-.65-1.95-.82-2.9-.35-.95.43-1.56,1.39-1.56,2.47v103.09L4.63,36.7c-.78-.74-1.95-.95-2.99-.52-1,.43-1.65,1.43-1.65,2.51v195.22c0,1.52,1.21,2.73,2.73,2.73h76.54c1.52,0,2.73-1.21,2.73-2.73v-115.26l8.97,8.62,2.25,2.17,33.44,32.14,3.16,3.08,29.76,28.59c.13.13.26.26.43.35.13.13.3.22.48.26.69.3,1.43.3,2.12,0,.17-.04.35-.13.48-.26.13-.04.26-.17.35-.26l.09-.09,30.49-29.32,3.03-2.95,32.83-31.53,2.25-2.17,8.97-8.62v115.26c0,1.52,1.26,2.73,2.73,2.73h76.54c1.52,0,2.73-1.21,2.73-2.73V38.69c0-1.08-.65-2.08-1.65-2.51ZM5.46,45.1l32.53,31.27v154.81H5.46V45.1Zm71.08,186.08h-33.09V81.62l33.09,31.79v117.77ZM241.09,8.5v48.08l-43.92,39.98-31.36-25.86L241.09,8.5Zm-47.99,91.78l-31.06,28.24-31.75-28.5,31.27-25.82,31.53,26.08ZM81.99,8.5l75.28,62.2-31.06,25.64-44.23-39.76V8.5Zm0,102.57v-47.21l39.98,35.99-27.81,22.96-12.17-11.74Zm16.16,15.51l27.94-23.04,31.88,28.67-27.72,25.25-32.1-30.88Zm63.41,60.99l-27.38-26.29,27.89-25.38,27.51,24.73-28.02,26.94Zm31.92-30.71l-27.37-24.65,31.23-28.41,27.59,22.78-31.45,30.28Zm47.6-45.78l-12.17,11.74-27.51-22.74,39.68-36.12v47.13Zm5.46,2.34l33.09-31.79.02-.02v149.59h-33.11v-117.77Zm71.08,117.77h-32.51V76.35l.02-.02,32.49-31.23v186.08Z"/></g></svg>