<?xml version="1.0" encoding="UTF-8"?>
<svg id="Laag_2" data-name="Laag 2" xmlns="http://www.w3.org/2000/svg" viewBox="0 0 207.29 305.65">
  <defs>
    <style>
      .cls-1 {
        stroke: #000;
        stroke-miterlimit: 10;
      }

      .cls-1, .cls-2 {
        fill: #000;
      }

      .cls-2 {
        stroke-width: 0px;
      }
    </style>
  </defs>
  <g id="Layer_1" data-name="Layer 1">
    <g>
      <path class="cls-2" d="M19.15,258.44c.99-11.26,1.65-21.79,2.94-32.25.76-6.15,2.22-12.27,3.9-18.25,4.73-16.81,16.11-28.47,29.97-38.25,4.85-3.42,9.47-7.26,13.81-11.33,7.07-6.62,7.21-13.37.51-20.55-2.38-2.55-5.31-4.62-8.13-6.73-20.6-15.38-29.52-36.88-31.72-61.61-.79-8.86-.13-17.85-.13-26.12-3.38-2.76-6.25-4.43-8.23-6.85-4.62-5.63-4.32-14.53.37-21.29,3.53-5.1,8.32-8.57,14.42-9.86,5.57-1.17,11.16-2.41,16.81-2.92C80.18.06,106.78-.77,133.3.81c17.78,1.05,35.72,2.27,52.97,7.78,8.49,2.71,14.88,7.49,18.8,15.57,5.15,10.6,1.18,19.53-10.16,22.55-1.57.42-3.18.67-5.1,1.06-.58,7.19-1.16,14.42-1.75,21.64-1.01,12.3-4.47,23.94-9.66,35.09-6.69,14.35-17.99,24.3-31.42,31.96-5.21,2.97-8.98,6.86-11.4,12.21-1.79,3.95-1.25,7.47,2.41,10.08,5.08,3.61,10.24,7.1,15.4,10.61,2.68,1.83,5.43,3.55,8.14,5.35,14.4,9.52,19.95,24.58,24.41,40.05,3.85,13.35,4.87,27.18,4.92,41.06,0,1.85,0,3.7,0,5.63,3.32.95,6.21,1.55,8.92,2.6,6.81,2.65,9,7.41,6.35,14.25-2.92,7.54-8.55,12.67-16.18,14.91-10.37,3.05-20.83,6.22-31.47,7.91-43.53,6.93-86.97,6.02-130.11-3.33-5.78-1.25-11.46-3.31-16.92-5.61-5.44-2.29-9.37-6.31-10.87-12.35-2.08-8.4,1.71-15.96,9.79-18.89,2.78-1.01,5.7-1.62,8.8-2.47ZM184.9,47.98c-2.46-.44-4-.87-5.56-.98-21.37-1.46-42.73-3.59-64.13-4.1-22.46-.54-44.96.53-67.44.76-4.22.04-8.44-.58-13.75-.97.82,10.26,1.01,20.01,2.49,29.54,3.27,20.95,11.38,39.53,28.59,53.09,2.77,2.18,5.61,4.32,8.12,6.77,9.92,9.67,9.92,21.8-.14,31.26-4.33,4.07-9.07,7.73-13.74,11.42-9.17,7.23-18.42,14.28-23.78,25.19-5.36,10.91-7.76,22.54-8.92,34.45-.75,7.68-2.28,15.42-.62,23.69,52.85,4.63,105.3,11.39,158.71,4.07,1.63-20.84-1.45-40.25-9.25-59.19-5.01-12.17-13.3-20.79-24.15-27.58-5.51-3.45-10.85-7.2-16.04-11.11-7.41-5.58-8.65-11.7-4.33-19.9,2.98-5.66,7.17-10.03,12.93-13.08,18.01-9.55,29.6-24.37,34.67-44.05,2.23-8.63,3.65-17.48,5.17-26.28.72-4.17.78-8.46,1.17-13.01ZM111.94,299.56c8.53-.71,22.68-1.21,36.61-3.25,12.56-1.83,24.9-5.18,37.27-8.17,5.39-1.3,9.94-4.35,13.15-9.03,3.81-5.54,2.36-9.49-4.37-10.19-5.32-.55-10.82,0-16.18.58-23.5,2.51-47.04,4.16-70.65,2.09-24.3-2.13-48.54-4.94-72.85-6.94-7.21-.59-14.65-.05-21.81,1.06-7.1,1.1-10.09,8.06-6.39,14.25,1.7,2.84,4.66,5.31,7.61,6.91,3.76,2.05,7.98,3.55,12.18,4.42,26.34,5.47,52.85,9.51,85.43,8.27ZM109.41,5.16c-22.28,1.3-39.32,2.11-56.32,3.38-5.08.38-10.33,1.37-15.02,3.27-3.81,1.55-7.54,4.36-10.13,7.56-3.87,4.79-2.16,10.72,3.28,13.71,1.83,1.01,4.07,1.71,6.14,1.76,7.01.15,14.03-.21,21.05-.1,22.46.34,44.93.48,67.37,1.33,16.22.62,32.38,2.38,48.59,3.4,6.45.4,13,.77,19.38.05,6.44-.72,8.51-5.2,6.07-11.26-2.31-5.74-5.9-10.41-12.12-12.29-5.43-1.65-10.84-3.83-16.41-4.47-22.3-2.57-44.65-4.62-61.87-6.35Z"/>
      <path class="cls-2" d="M53.14,84.32c-.22-5.33,2.39-7.9,5.86-8.93,6.96-2.05,14.07-4.67,21.19-4.92,23.85-.85,47.6.37,70.96,6.07,14.71,3.59,16.63,7.63,8.94,20.66-7.07,11.99-17.34,20.43-29.33,27.3-6.25,3.58-11.93,8.33-17.34,13.15-6.89,6.15-9.83,6.41-16.41.16-9.4-8.94-18.78-17.89-28.31-26.69-7.19-6.64-10.61-15.57-14.97-23.94-.6-1.14-.55-2.62-.6-2.86ZM157.6,91.59c-32.81,7.74-64.34,4.71-96.5-.14,3.17,8.26,7.99,13.63,14.09,17.9,8.95,6.28,16.81,13.63,23.22,22.53,1.68,2.33,3.81,4.34,6,6.81,2.06-1.61,3.72-2.54,4.9-3.89,6.31-7.25,13.81-12.6,22.43-17.06,10.65-5.51,19.41-13.64,25.87-26.14ZM158.92,83.4c-4.81-1.3-8.36-2.67-12.03-3.19-12.83-1.83-25.67-4.2-38.58-4.79-13.69-.63-27.62-1.7-41.08,2.49-3.21,1-6.27,2.47-10.14,4.03,3.62,4.83,7.76,5.7,12.06,6.24,6.7.84,13.38,1.85,20.1,2.46,19.71,1.8,39.42,1.77,59.07-.84,3.81-.5,7.16-2.08,10.6-6.4Z"/>
      <path class="cls-2" d="M34.56,248.77c4.58-10.27,11.51-14.08,20.75-13.98,9.51.1,18.03-2.54,26.1-7.66,9.95-6.31,20.45-8.18,31.51-2.07,7.71,4.26,16.35,5.26,24.96,6.7,8.76,1.46,17.3,4.28,25.86,6.8,1.96.58,3.82,2.12,5.28,3.65,4.16,4.38,3.53,9.31-1.84,11.98-3.31,1.64-7.17,3-10.8,3.05-13.81.19-27.65.14-41.45-.45-20.04-.86-40.06-2.25-60.08-3.44-4.06-.24-8.18-.27-12.14-1.05-2.68-.52-5.13-2.18-8.14-3.54ZM167.65,247.77c-2.16-1.76-3.87-4.04-6.09-4.79-7.41-2.5-14.88-5.38-22.56-6.4-10.57-1.4-20.79-3.42-30.33-8.24-6.57-3.32-13.19-3.34-19.39.37-11.32,6.79-23.1,11.73-36.6,11.45-1.56-.03-3.23.56-4.69,1.22-2.36,1.07-4.97,2.05-5.66,5.79,2.13.3,3.9.68,5.68.77,22.16,1.05,44.31,2.1,66.47,3.07,13.24.58,26.48,1.08,39.73,1.49,4.6.14,9.17-.2,13.44-4.72Z"/>
      <path class="cls-2" d="M103.41,172.11c-3.7-.03-6.5-2.62-6.33-5.84.22-4.06,3.96-7.97,7.68-8.01,3.56-.04,6.43,3.14,6.24,6.92-.19,3.73-3.73,6.96-7.59,6.93ZM103.53,168.25c1.21-1.33,2.01-2.21,2.81-3.1-.85-.74-1.7-1.47-2.56-2.21-.73.91-1.74,1.72-2.07,2.76-.16.5.96,1.41,1.82,2.55Z"/>
      <path class="cls-2" d="M101.54,197.97c.1-4.46,2.3-7.02,6.03-7.03,3.71,0,6.72,3.47,6.6,7.65-.11,3.91-2.91,7.04-6.32,7.07-3.9.04-6.41-3.04-6.31-7.7ZM107.33,195.77c-.79.36-1.57.73-2.36,1.09.62,1.4,1.23,2.79,1.85,4.19.8-.39,2.33-1.02,2.3-1.13-.46-1.42-1.15-2.77-1.78-4.14Z"/>
    </g>
    <polygon class="cls-1" points="163.74 240.57 137.88 233.77 114.17 230.04 101.54 224.44 82.41 228.14 69.66 236.66 45.68 240.15 42.33 247.17 57.09 248.36 159.5 254.22 167.65 250.77 163.74 240.57"/>
    <polygon class="cls-2" points="58.67 87.99 103.14 94.55 148.32 89.81 162.19 86.26 148.88 107.46 125.53 125.85 104.96 140.81 74.48 111.9 55.37 90.41 58.67 87.99"/>
  </g>
</svg>