<?xml version="1.0" encoding="UTF-8"?>
<svg id="Laag_2" data-name="Laag 2" xmlns="http://www.w3.org/2000/svg" viewBox="0 0 461.01 214.62">
  <defs>
    <style>
      .cls-1 {
        fill: #000;
        stroke-width: 0px;
      }
    </style>
  </defs>
  <g id="Layer_1" data-name="Layer 1">
    <path class="cls-1" d="M430.9,189.88c-.27,3.42-.38,6.34-.76,9.23-.62,4.76-3.2,8.07-7.71,9.88-7.42,2.98-15.16,4.31-23.11,4.34-10.26.04-20.53-.32-30.79-.13-10.08.19-20.14.92-30.21,1.32-13.85.55-27.46-1.27-40.87-4.56-2.8-.69-5.58-1.92-8.04-3.44-3.14-1.94-3.68-5.37-1.08-7.93,1.85-1.82,4.43-3.34,6.94-3.99,6.94-1.79,14.03-2.53,21.26-2.08,23.29,1.45,46.55.09,69.82-.83,1.95-.08,3.89-.42,5.89-1.18-3.25-2.21-6.89-2.75-10.59-2.79-3.85-.04-7.69.32-11.54.38-31.16.53-62.33,1.02-93.49,1.54-26.77.45-53.54.95-80.31,1.35-7.7.12-15.41-.14-23.1.03-15.42.34-31.07,1.75-46.48,1.24-14.2-.47-27.85-5.08-41.19-9.59-4.94-1.67-9.88-3.34-14.82-5.01-.99-.34-2.13-.81-2.4-1.83-.32-1.17.7-2.23,1.62-3.01,7.41-6.22,15.31-11.86,23.59-16.87,3.72-2.25,7.99-5.45,12.16-6.73,3.31-1.02,7.3-1.15,10.76-1.76,17.58-3.08,35.41-4.51,53.24-5.15,28.03-1.01,56.07-2.22,84.11-2.8,14.47-.3,28.97.84,43.45.92,25.86.15,51.72-.11,77.57.01,7.51.04,15.04.52,22.51,1.27,10.36,1.04,20.34,3.2,27.49,11.93.73.9,2.56,1.06,3.92,1.25,4.71.67,9.51.89,14.14,1.91,3.53.78,6.99,2.24,10.23,3.89,4.37,2.23,8.25,5.25,7.86,10.89-.42,6.11-2.36,11.49-8.33,14.53-5.2,2.65-10.83,3.3-16.52,3.7-1.64.11-3.3.04-5.22.05ZM333.4,146.76c-45.04.74-89.86-2.45-135.16.8,1.32,12.45,4.01,24.7,1.49,37.43,44.81-.53,89.12-1.05,133.7-1.58,1.68-12.37,2.17-24.14-.04-36.66ZM341.18,183.37c1.14.07,2.58.24,4.01.22,10.99-.16,21.99-.62,32.98-.42,5.24.1,10.53,1.14,15.66,2.36,4,.95,5.44,2.98,5.21,5.44-.32,3.44-3.09,4.36-5.73,5.07-2.46.66-5.04,1.03-7.59,1.23-23.04,1.82-46.09,2.47-69.2,1.54-6.35-.26-12.75.79-19.12,1.39-1.3.12-2.53.95-5.11,1.98,3.59,1.39,5.85,2.8,8.25,3.1,11.8,1.47,23.66,3.88,35.46,3.64,17.76-.37,35.49-1.5,53.29-.92,6.02.2,12.11-.14,18.1-.81,4.14-.46,8.28-1.61,12.19-3.08,1.81-.68,4.13-2.65,4.41-4.34,1.12-6.82,2.09-13.76,2.02-20.65-.05-5.04-1.84-10.06-2.77-15.1-1.22-6.61-5.26-10.95-11.42-12.91-5.02-1.6-10.31-3.06-15.52-3.24-17.75-.6-35.53-.62-53.3-.81-.81,0-1.63.46-1.7.48-.04,12.21-.07,23.88-.11,35.81ZM83.35,170.53c-.29,1.12-.15,2.3.68,3.48,1.05,1.48,2.8,2.25,4.46,2.96,8.08,3.43,16.65,7.62,25.59,8.9,3.84.55,9.25,1.07,12.13-2.23,2.55-2.92,1.44-7.48,1.4-11.04-.08-6.85-1.63-13.56-5.55-19.27-.86-1.25-9.76.72-11.2,1.02-4.06.85-8,2.22-11.73,4.05-3.97,1.95-7.97,4.08-11.49,6.78-1.65,1.26-3.76,3.2-4.31,5.36ZM431.44,183.65c4.73-.49,9.26-.78,13.72-1.49,1.91-.31,3.87-1.24,5.49-2.35,4.09-2.8,4.83-9.18,1.35-11.7-7.01-5.08-15.23-6.11-23.91-7.37,1.16,7.87,2.18,14.88,3.36,22.91ZM167.05,148.75c4.71,12.52,4.74,24.36.43,36.74,4.3.13,7.89.24,11.79.35,5.47-12.99,2.32-25.19-1.13-37.73-3.86.22-7.1.41-11.09.64ZM162.31,185.41c4.47-12.35,3.98-24.25-.22-36.42-3.75.2-7.15.38-10.64.57,7.09,29.3,2.86,25.86,1.15,36.14,3.3-.1,6.52-.2,9.71-.3ZM193.56,185.68c3.6-13.3.05-25.6-.97-38.45-3.27.15-6.09.28-9.52.44,4.16,12.74,6.25,25.04,2.44,38.07,3.01-.02,5.33-.03,8.06-.05ZM140.43,150.39c1.1,6.53,2.49,12.22,2.92,17.99.44,5.89-.04,11.84-.13,18.08,1.79-.23,3.54-.46,5.11-.66,4.28-12.48,1.84-24.09-2.48-35.96-2.05.21-3.99.41-5.43.56ZM137.16,186.85c2.49-12.49,1.95-24.21-2.57-35.76-1.81.15-3.08.19-4.33.38-.49.07-.93.45-1.68.83,6.7,10.77,5.38,22.61,4.37,34.57,1.43,0,2.49,0,4.21-.02Z"/>
    <path class="cls-1" d="M18.94,58.47c-4.61-12.12-3.37-23.73,2.71-34.91,2.97-5.45,7.54-8.86,13.9-9.45,14.54-1.35,29.09-2.71,43.64-3.98,8.22-.72,16.44-1.45,24.68-1.82,11.85-.53,23.71-1.01,35.56-1.03,24.93-.05,49.85.09,74.78.41,11.51.15,23.01.87,34.51,1.4,6.87.32,13.73.81,20.6,1.12,5.07.22,9.92.86,13.89,4.54,1.11,1.03,2.61,1.65,4,2.34,9.52,4.79,19.13,9.41,28.56,14.38,4.84,2.56,9.64,5.38,13.95,8.73,5.39,4.19,4.96,7.96-.73,11.84-11.32,7.74-24.18,13.31-35.79,20.68-2.82,1.79-5.75,2.92-9.19,2.88-11.17-.14-22.34-.11-33.51-.18-25.79-.17-51.57-.52-77.36-.52-23.38,0-46.76.24-70.14.64-14.43.24-28.86.88-43.28,1.5-5.14.22-10.31.64-15.39,1.44-9.43,1.48-16.03-2.17-20.38-10.42-1.68-3.19-3.34-6.39-5.01-9.59ZM103.88,69.46c56.26-2.03,112.4,1.8,169.86-.35-9.47-8.22-8.91-18.59-9.24-29.11-56.89-1.62-113.34-.27-170.26,4.26.85,9.3,3.62,17.52,9.65,25.19ZM265.01,35.23c1.92-6.17,3.88-12.44,5.95-19.08-3.7-.17-7.61-.34-11.51-.52-14.43-.69-28.84-1.75-43.28-2.01-25.96-.46-51.92-.62-77.89-.53-11.85.04-23.7.83-35.54,1.55-5.4.33-6.87,1.67-7.74,7.03-.77,4.73-.88,9.58-1.16,14.38-.07,1.11.35,2.24.53,3.33,57.07-4.61,113.89-4.89,170.63-4.15ZM75.69,69.84c-3.79-8.88-6.94-17.26-6.89-26.04.05-8.8,1.73-17.59,2.72-26.6-11.23.79-22.51,1.84-33.81,2.28-5.42.21-8.65,3-10.95,7.2-4.97,9.05-6.05,18.59-2.31,28.35,1.35,3.51,3.24,6.82,4.98,10.17,3.07,5.91,7.8,7.98,14.5,7.13,8.68-1.09,17.46-1.42,26.2-2.08,1.68-.13,3.36-.25,5.55-.42ZM310.94,35.25c-11.41-5.81-22.4-11.41-33.99-17.31-1.21,2.85-2.66,5.38-3.36,8.11-.98,3.82-1.41,7.77-2.06,11.67-1.6,9.63-.62,18.62,4.57,27.32,2.19,3.67,4.56,4.82,8.1,4.44,2.12-.23,4.3-1.11,6.18-2.18,6.43-3.64,12.74-7.49,19.09-11.29.7-.42,1.28-1.03,2.05-1.65-2.6-6.3-4.32-12.55-.56-19.12ZM96.49,69.44c-10.31-17.53-9.86-35.14-5.35-53.53-4.25.21-8.46.43-12.54.63-5.66,18.31-5.98,35.82,3.55,52.83,4.57.02,9.15.05,14.35.07ZM317.12,52.1c3.62-2.11,6.77-3.94,10.4-6.06-3.61-4.13-7.61-6.37-12.15-8.52-1.87,5.41-.48,9.73,1.75,14.58Z"/>
    <polygon class="cls-1" points="333.4 146.76 195.67 141.83 200.76 172.93 196.31 190.99 337.15 185.91 341.29 147.56 333.4 146.76"/>
    <polygon class="cls-1" points="79.58 72.62 72.3 41.81 79.19 10.12 27.44 18.84 19.78 37.95 23.95 68.05 38.22 78.68 79.58 72.62"/>
    <path class="cls-1" d="M386.75.25c-3.98,1.73-7.85,3.72-11.72,5.68-3.71,1.88-7.67,3.61-10.35,6.9-.76.93-.19,2.32,1.05,2.34,4.22.06,8.04-1.84,11.85-3.48,3.98-1.71,8.01-3.37,11.88-5.31,3.37-1.68.79-7.65-2.71-6.13Z"/>
    <path class="cls-1" d="M393.38,72.46c-1.9-4.51-7.7-4.66-11.84-5.58-5.61-1.25-11.69-3.13-17.44-2.25-2.53.39-2.44,3.88-.66,5.05,4.55,2.99,10.7,3.77,15.92,5.09,4.17,1.05,8.42,3.03,12.6,1.18,1.11-.49,1.9-2.35,1.42-3.49Z"/>
    <path class="cls-1" d="M4.09,212.71c4.07-1.51,8.04-3.28,12.01-5.03,3.81-1.68,7.86-3.19,10.71-6.32.81-.88.32-2.31-.92-2.39-4.21-.29-8.13,1.4-12.02,2.83-4.07,1.49-8.18,2.93-12.15,4.66-3.45,1.5-1.21,7.6,2.37,6.27Z"/>
    <path class="cls-1" d="M1.4,140.24c1.65,4.6,7.44,5.07,11.52,6.22,5.53,1.55,11.5,3.76,17.29,3.19,2.55-.25,2.65-3.74.93-5.01-4.38-3.23-10.47-4.35-15.62-5.94-4.1-1.27-8.25-3.49-12.52-1.87-1.13.43-2.03,2.24-1.61,3.41Z"/>
  </g>
</svg>