<?xml version="1.0" encoding="UTF-8"?>
<svg id="Laag_2" data-name="Laag 2" xmlns="http://www.w3.org/2000/svg" viewBox="0 0 162.88 33">
  <defs>
    <style>
      .cls-1 {
        fill: #005bc5;
      }

      .cls-1, .cls-2, .cls-3 {
        stroke-width: 0px;
      }

      .cls-2 {
        fill: #000;
      }

      .cls-3 {
        fill: #2da7df;
      }
    </style>
  </defs>
  <g id="Laag_1-2" data-name="Laag 1">
    <path class="cls-3" d="M13.47,7.99c1.14-.39,2.37-.56,3.64-.44,4.88.44,8.5,4.81,8.07,9.75-.11,1.28-.49,2.48-1.07,3.54l4.94,5.97c1.95-2.45,3.23-5.49,3.53-8.85C33.37,8.9,26.73.87,17.77.07c-3.33-.3-6.51.44-9.24,1.95l4.94,5.97Z"/>
    <path class="cls-1" d="M18.99,25.07c-1.09.35-2.26.49-3.46.38-4.88-.44-8.5-4.81-8.07-9.75.11-1.22.45-2.36.98-3.38L3.48,6.32C1.59,8.75.35,11.74.06,15.03c-.8,9.06,5.84,17.09,14.81,17.9,3.26.29,6.39-.41,9.09-1.86l-4.96-6Z"/>
    <path class="cls-2" d="M38.31,16.56c0-3.53,2.79-6.23,6.33-6.23,2.37,0,4.16,1.16,5.14,2.95l-2.25,1.76c-.67-1.02-1.53-1.74-2.84-1.74-1.84,0-3.11,1.4-3.11,3.26s1.27,3.29,3.11,3.29c1.29,0,2.15-.73,2.84-1.72l2.25,1.74c-.98,1.79-2.79,2.97-5.14,2.97-3.54,0-6.33-2.73-6.33-6.28h0Z"/>
    <path class="cls-2" d="M50.3,16.56c0-3.5,2.77-6.23,6.33-6.23s6.36,2.75,6.36,6.23-2.82,6.26-6.38,6.26-6.31-2.75-6.31-6.26ZM59.69,16.58c0-1.89-1.31-3.29-3.06-3.29s-3.06,1.38-3.06,3.29,1.29,3.24,3.06,3.24,3.06-1.38,3.06-3.24Z"/>
    <path class="cls-2" d="M82.78,15.13v7.42h-3.23v-6.96c0-1.43-.84-2.32-2.1-2.32s-2.18.92-2.18,2.25v7.03h-3.23v-6.96c0-1.43-.84-2.32-2.1-2.32s-2.18.9-2.18,2.32v6.96h-3.23v-11.96h2.96v1.06c.79-.82,1.94-1.33,3.35-1.33,1.6,0,2.77.63,3.51,1.72.88-1.04,2.27-1.72,3.94-1.72,2.82,0,4.47,1.93,4.47,4.81h0Z"/>
    <path class="cls-2" d="M97.41,16.56c0,3.6-2.39,6.28-5.74,6.28-1.46,0-2.7-.53-3.54-1.45v5.51h-3.23V10.59h2.96v1.5c.81-1.13,2.18-1.76,3.8-1.76,3.35,0,5.74,2.63,5.74,6.23h0ZM94.13,16.58c0-2.03-1.36-3.31-3.06-3.31-1.48,0-2.99.99-2.99,3.29s1.48,3.31,2.99,3.31c1.67,0,3.06-1.26,3.06-3.29Z"/>
    <path class="cls-2" d="M98.86,17.28v-6.69h3.23v6.96c0,1.4.98,2.29,2.25,2.29s2.2-.89,2.2-2.29v-6.96h3.23v6.69c0,3.38-2.34,5.56-5.42,5.56s-5.47-2.17-5.47-5.56h0Z"/>
    <path class="cls-2" d="M123.72,4.43v18.12h-2.96v-1.47c-.81,1.13-2.18,1.76-3.8,1.76-3.34,0-5.73-2.66-5.73-6.26s2.39-6.26,5.73-6.26c1.48,0,2.7.51,3.54,1.43v-7.32h3.23,0ZM120.54,16.58c0-2.27-1.51-3.31-2.99-3.31-1.67,0-3.06,1.26-3.06,3.29s1.36,3.31,3.06,3.31c1.48,0,2.99-.99,2.99-3.29Z"/>
    <path class="cls-2" d="M129.19,10.59h-3.23v11.96h3.23v-11.96Z"/>
    <path class="cls-3" d="M125.51,6.24c0-1.16.91-2.03,2.05-2.03s2.08.87,2.08,2.03-.93,2.01-2.08,2.01-2.05-.87-2.05-2.01Z"/>
    <path class="cls-2" d="M149.67,15.13v7.42h-3.23v-6.96c0-1.43-.84-2.32-2.1-2.32s-2.18.92-2.18,2.25v7.03h-3.23v-6.96c0-1.43-.84-2.32-2.1-2.32s-2.18.9-2.18,2.32v6.96h-3.23v-11.96h2.96v1.06c.79-.82,1.94-1.33,3.35-1.33,1.6,0,2.77.63,3.51,1.72.88-1.04,2.27-1.72,3.94-1.72,2.82,0,4.47,1.93,4.47,4.81h0Z"/>
    <path class="cls-2" d="M162.67,17.67h-8.29c.38,1.52,1.6,2.37,3.32,2.37,1.29,0,2.34-.46,3.3-1.21l1.34,2.22c-1.34,1.13-2.92,1.79-4.73,1.79-3.75,0-6.48-2.73-6.48-6.26s2.7-6.26,6.19-6.26,5.57,2.46,5.57,5.56c0,.68-.12,1.38-.21,1.79h0ZM154.38,15.37h5.38c-.02-1.52-1.19-2.42-2.56-2.42s-2.46.92-2.82,2.42Z"/>
  </g>
</svg>