<?xml version="1.0" encoding="UTF-8"?>
<svg id="Laag_2" data-name="Laag 2" xmlns="http://www.w3.org/2000/svg" viewBox="0 0 20.92 20">
  <defs>
    <style>
      .cls-1 {
        fill: #fceb6a;
        stroke-width: 0px;
      }
    </style>
  </defs>
  <g id="Laag_1-2" data-name="Laag 1">
    <path class="cls-1" d="M20.92,20v-7.74c0-4.15-2.21-6.07-5.16-6.07-2.38,0-3.45,1.31-4.04,2.23v-1.91h-4.49c.06,1.27,0,13.49,0,13.49h4.49v-7.54c0-.4.03-.81.15-1.09.32-.81,1.06-1.64,2.3-1.64,1.62,0,2.27,1.24,2.27,3.05v7.22h4.49ZM2.51,4.66c1.56,0,2.54-1.04,2.54-2.33-.03-1.32-.97-2.33-2.51-2.33S0,1.01,0,2.33s.97,2.33,2.48,2.33h.03ZM4.75,20V6.5H.27v13.49h4.49Z"/>
  </g>
</svg>