<?xml version="1.0" encoding="UTF-8"?>
<svg id="Laag_2" data-name="Laag 2" xmlns="http://www.w3.org/2000/svg" viewBox="0 0 380.96 300.22">
  <defs>
    <style>
      .cls-1 {
        stroke: #000;
        stroke-miterlimit: 10;
      }

      .cls-1, .cls-2 {
        fill: #000;
      }

      .cls-2, .cls-3 {
        stroke-width: 0px;
      }

      .cls-3 {
        fill: #fff;
      }
    </style>
  </defs>
  <g id="Layer_1" data-name="Layer 1">
    <polygon class="cls-1" points="167.45 21.54 80.75 23.42 66.9 24.98 62.89 48.11 66.58 155.29 79.2 165.83 295.85 166.11 309.82 144.99 304.36 37.51 294.81 23.45 256.96 16.05 192.21 15.37 167.45 21.54"/>
    <g>
      <path class="cls-2" d="M318.25,188.53c1.41.51,2.44.97,3.52,1.26,6.38,1.74,11.94,4.95,16.41,9.77,7.48,8.06,15.48,15.79,21.93,24.62,8.93,12.25,16.52,25.42,20.11,40.48,2.69,11.28-2.01,19.9-13.2,23.35-11.44,3.53-23.04,5.95-35.1,6.51-22.15,1.04-44.26,2.95-66.41,3.98-17.61.82-35.26.89-52.9,1.25-9.67.2-19.34.56-29,.41-24.08-.38-48.16-1.01-72.24-1.55-3.03-.07-6.06-.24-9.1-.32-21.99-.55-43.97-.98-65.95-1.7-5.66-.19-11.36-.93-16.9-2.1-3.82-.8-7.6-2.41-11.06-4.28-7.88-4.27-10.02-10.1-7.16-18.65.9-2.68,2.12-5.28,3.42-7.8,10.13-19.58,22.1-38.04,35.08-55.81,4.66-6.39,10.45-11.95,15.92-18.11.1.26.06-.27-.18-.39-8.66-4.2-12.03-11.69-12.73-20.72-.78-10.01-1.68-20.03-1.97-30.07-.59-20.66-1.07-41.34-1.06-62.01,0-11.74.95-23.48,1.74-35.2.27-3.94,1.4-7.82,2.08-11.73,1.79-10.37,8.25-17.03,17.62-20.62,5.76-2.21,12.01-3.87,18.14-4.28,26.48-1.79,52.99-3.32,79.5-4.41,29.78-1.22,59.54.36,89.3,1.36,10.23.34,20.48.26,30.72.53,9.59.25,18.67,2.62,27.53,6.34,11.84,4.97,18.86,14.05,21.72,26.03,1.92,8.04,3.05,16.49,2.98,24.75-.28,32.99-1.04,65.99-1.88,98.97-.28,11-3.52,21.22-10.87,30.11ZM228.25,290.95c12.29,0,24.05.47,35.76-.1,23.85-1.16,47.68-2.99,71.52-4.3,10.35-.57,20.2-3.22,29.96-6.25,6.61-2.05,9.06-6.52,7.2-13.18-1.73-6.19-3.67-12.39-6.26-18.25-7.95-17.99-20.51-32.65-34.59-46.08-4.35-4.15-9.56-6.95-15.64-7.45-9.82-.81-19.66-1.32-29.49-1.99-5.29-.36-10.58-1.08-15.87-1.13-23.51-.23-47.02-.26-70.53-.39-2.47-.01-4.93-.11-7.39-.19-8.53-.27-17.05-.68-25.58-.78-11.19-.13-22.38-.18-33.57.02-19.15.34-38.29.91-57.44,1.4-1.13.03-2.26.24-3.39.35-8.53.83-15.29,4.42-20.78,11.31-16.15,20.24-29.81,42.04-41.84,64.91-.96,1.83-1.71,3.81-2.29,5.8-1.27,4.37-.55,6.21,3.29,8.58,4.78,2.95,10.06,4.48,15.62,4.79,15.14.83,30.29,1.65,45.44,2.21,14.78.55,29.57.78,44.36,1.17,9.67.26,19.34.55,29,.84,2.33.07,4.52.06,5.71-2.58,1.79-3.97,5.12-4.98,9.3-5.12,9.28-.31,18.58-.75,27.8-1.72,8.7-.92,17.32-1.37,26.09-.92,6.91.36,12.49,1.49,13.63,9.06ZM288.21,188.21c5.15,0,10.62.14,16.08-.04,5.72-.19,9.97-2.89,12.87-7.94,3.91-6.79,5.29-14.22,5.4-21.84.51-34.12.91-68.24,1.19-102.36.04-5.1-.42-10.25-1.22-15.29-2.04-12.88-8.38-22.56-21.17-27.19-7.17-2.6-14.46-4.5-22.13-4.69-8.34-.2-16.68-.43-25.01-.73-44.53-1.6-89.06-3.11-133.6-.62-14.94.83-29.95,1.54-44.73,3.66-19.72,2.83-25.9,10.64-27.8,27.47-1.19,10.53-2.2,21.15-2.19,31.72.02,25.97.52,51.94,1.15,77.9.2,8.12,1.29,16.23,2.21,24.32.68,6.03,4.33,9.84,9.79,12.24,4.14,1.81,8.28,1.81,12.74,1.46,8.66-.68,17.37-.63,26.39-.9.52-4.13,1.74-7.94,6.65-8.5,5.82-.66,11.64-1.33,17.48-1.63,6.13-.31,10.7,2.01,12.16,8.56.07.3.52.51,1.13,1.06,36.55.46,73.44.92,110.43,1.38,1.09-4.12,3.1-7.03,7.76-7.08,7.2-.08,14.39-.43,21.58-.41,8.4.03,9.78,1.1,12.82,9.45ZM155.14,290.35c.16.62.32,1.24.48,1.86,21.97,1.29,43.92-.62,66.08-.23-1.19-4.9-1.2-4.81-5.7-5.39-15.16-1.95-30.24.41-45.35.82-3.59.1-7.18.55-10.73,1.11-1.65.26-3.19,1.19-4.77,1.82ZM128.77,184.63c.3-3.78-1.48-4.69-4-5.04-6.5-.91-12.77.26-18.96,2.07-1.65.48-2.62,1.44-1.92,4,8.2-.34,16.55-.69,24.89-1.03ZM281.54,187.8c.79-4.24-1.46-4.81-3.86-4.75-7.92.22-15.84.57-23.76,1-.87.05-1.7,1-2.54,1.53.07.29.15.57.22.86,9.88.45,19.76.89,29.94,1.36Z"/>
      <path class="cls-2" d="M164.36,259.43c-20.48,0-40.96-.17-61.43.07-10.61.12-21.2,1.1-31.81,1.42-5.29.16-10.62-.07-15.89-.59-2.76-.27-5.59-1.21-8.09-2.45-4.45-2.19-5.83-5.79-4.18-10.44.88-2.48,2.17-4.85,3.54-7.11,6.87-11.34,13.81-22.65,20.79-33.92,1.29-2.09,2.58-4.38,4.45-5.85,2.12-1.67,4.8-3.27,7.39-3.59,20.04-2.42,40.11-1.32,60.2-.34,17.42.85,34.86,1.32,52.3,1.84,19.14.57,38.29.7,57.41,1.56,19.68.89,39.34,2.4,59,3.7,2.64.17,5.26.69,7.89,1.02,3.75.47,6.81,2.22,9.34,4.96,10.46,11.35,16.46,24.87,19.28,39.89.78,4.19-.75,7.25-4.78,8.53-3.35,1.07-7.05,1.53-10.58,1.48-14.6-.18-29.19-1-43.78-.92-16.48.09-32.96,1.01-49.45,1.35-6.03.13-12.08-.51-18.12-.54-17.83-.08-35.65-.03-53.48-.03,0-.02,0-.03,0-.05ZM128.01,241.35c-1.33,4.31-2.52,8.16-3.87,12.52h107.17c-.99-4.35-1.8-7.94-2.74-12.07-33.58,1.33-66.71,2.16-100.55-.45ZM199.25,237.98c-.44-6.16-.82-11.4-1.23-17.09h-21.71c-.52,5.79-1.04,11.49-1.54,17.09h24.48ZM203.1,237.83c4.53-.26,8.29-.51,12.05-.7,3.84-.19,7.67-.34,11.95-.52-1.5-5.71-2.77-10.58-4.08-15.56h-21.39c.49,5.63.95,10.83,1.47,16.78ZM109.04,216.03c-6.31,0-11.55-.07-16.79.06-.98.02-2.41.62-2.82,1.38-2.89,5.41-5.56,10.93-8.54,16.9,7.04.46,13.21.87,19.65,1.3,2.78-6.43,5.45-12.58,8.51-19.64ZM154.01,219.9c-1.23,5.81-2.45,11.62-3.84,18.17h21.18c-.34-6,1.98-11.8.59-18.17h-17.93ZM124.3,236.32c2.1-6.28,4.11-12.3,6.33-18.95h-16.71c-3.83,6.32-7.06,14.75-7.12,18.95h17.5ZM98.41,240.06c-6.41-1.72-12.42-1.23-18.39-1.08-.77.02-1.86.7-2.24,1.38-2.59,4.67-5.03,9.42-7.69,14.49h22.7c1.66-4.29,3.16-8.13,4.65-11.98.27-.7.49-1.41.98-2.81ZM56.37,233.25c.27.46.54.91.81,1.37,3,0,6.01-.1,9,.02,10.89.41,8.2,1.17,12.67-7.35,1.79-3.41,3.35-6.93,5.41-11.21-5.6,0-10.1-.11-14.59.07-1.15.05-2.72.68-3.32,1.57-3.45,5.09-6.68,10.34-9.98,15.54ZM72.77,239.16c-4.23-.27-7.41-.45-10.59-.68q-9.23-.66-13.15,7.69c-.24.51-.53,1-.73,1.53-1.15,3.15-.67,4.58,2.43,5.79,4.46,1.74,9.15,1.93,14.24,1.59,2.46-5.03,4.92-10.04,7.8-15.92ZM129.71,237.46h17.34c.61-3.07,1.21-6.01,1.79-8.95.56-2.88,1.1-5.76,1.74-9.15-5.31-.48-9.9-.89-14.48-1.3-2.15,6.52-4.08,12.37-6.39,19.41ZM232.6,236.72c6.5-.31,12.46-.6,19.21-.93-1.42-5.42-2.68-10.22-3.9-14.89h-19.44c1.43,5.49,2.75,10.52,4.14,15.82ZM118.61,254.28c1.56-4.35,3.28-8.39,3.68-13.37-6.43-.32-12.36-.62-18.31-.92-2.35,5.08-4.43,9.6-6.59,14.29h21.22ZM256,235.5h19.33c-1.76-5.41-3.26-10.02-4.77-14.64h-18.36c1.36,5.25,2.58,9.96,3.79,14.64ZM253.33,240.97c-6.8.15-12.95-.44-19.4,1,.8,4.23,1.49,7.86,2.15,11.34,6.96.8,16.94.14,21.18-1.39-1.26-3.51-2.53-7.03-3.94-10.95ZM201.25,215.79h20.66c-.71-3.98-1.38-7.72-2.1-11.8h-19.38c.28,4.03.53,7.69.82,11.8ZM178.28,203.84c-.38,3.33-.8,6.95-1.31,11.4h20.54c-.17-3.68-.34-7.35-.53-11.4h-18.7ZM261.89,252.44h19.25c-1.15-3.74-1.89-6.87-3.13-9.78-.46-1.09-2.12-2.35-3.23-2.36-5.42,0-10.84.38-17.02.67,1.61,4.46,2.93,8.12,4.13,11.47ZM290.47,221h-15.39c1.59,5.19,3.01,9.82,4.49,14.62h14.81c-1.41-5.3-2.66-9.96-3.9-14.62ZM304.25,252.82h16.78c-1.84-4.95-3.44-9.29-5.1-13.76-5.34-.12-10.17-.59-15.62.97,1.32,4.29,2.52,8.19,3.93,12.79ZM243.15,204.68c-6.11-.34-11.89-.65-18.5-1.02.99,4.5,1.78,8.11,2.63,12.02h19.24c-1.21-3.94-2.24-7.31-3.37-11ZM314.22,235.08c-1.29-4.45-2.09-7.92-3.36-11.21-.44-1.13-1.99-2.42-3.17-2.58-4.04-.52-8.13-.57-12.98-.84,1.5,5.56,2.76,10.2,3.96,14.63h15.56ZM110.96,211.99c1.51-3.28,3.13-6.76,5.18-11.21h-19.14c-1.42,3.24-3.03,6.9-4.93,11.21h18.89ZM155.2,214.59h18.04c.49-3.88.94-7.51,1.46-11.69h-16.67c-.88,3.62-1.75,7.21-2.84,11.69ZM320.73,239.15c1.67,5.01,3.19,9.57,4.78,14.33,4.4.25,8.66,1.3,12.99-1.78-1.02-4.26-2.03-8.52-2.99-12.55h-14.78ZM333.94,234.82c-2.08-4.42-3.52-7.67-5.16-10.81-.47-.89-1.46-2.03-2.31-2.11-3.79-.37-7.67-1.25-11.8.19,1.2,3.8,2.08,7.25,3.42,10.51.45,1.1,2.02,2.4,3.14,2.46,3.87.2,7.76-.1,12.7-.24ZM247.35,205.46c1.36,3.87,2.52,7.17,3.53,10.06h18.16c-1.45-3.78-2.62-6.85-3.85-10.06h-17.84ZM92.43,200.68c-3.6.22-6.38.42-9.16.55-7.58.33-10.97,3.25-13.14,11.58,4.74,0,9.42.09,14.08-.07.94-.03,2.25-.77,2.72-1.57,1.87-3.21,3.48-6.57,5.5-10.48ZM132.23,212.75c1.41-3.62,2.81-7.23,4.44-11.42h-16.44c-1.47,3.8-2.85,7.35-4.43,11.42h16.42ZM285.25,252.62h15.12c-1.57-4.42-2.99-8.41-4.51-12.66-4.81.22-9.24.43-14.36.67,1.33,4.25,2.43,7.79,3.75,12ZM155.27,202.31h-14.55c-1.04,3.68-2.03,7.19-3.2,11.32,5.29.36,9.69.66,14.14.97,1.26-4.31,2.31-7.88,3.6-12.29ZM273.67,216.06h15.36c-.73-2.62-1.15-4.83-1.99-6.86-.36-.87-1.53-1.86-2.43-1.97-4.63-.57-9.3-.87-14.74-1.33,1.41,3.77,2.58,6.88,3.8,10.15ZM309.01,217.65c-1.02-3.13-1.57-5.32-2.47-7.35-.4-.9-1.48-2.02-2.33-2.09-4.38-.36-8.81-1.1-13.69,0,1.07,2.97,2,5.53,2.91,8.03,5.19.47,9.84.9,15.59,1.42ZM323.64,217.11c-4.55-6.69-7.84-8.39-13.28-7.07,3.01,9.15,3.4,9.37,13.28,7.07Z"/>
      <path class="cls-1" d="M90.53,166.8c-3.78-.04-7.57-.52-11.33-.96-6.46-.76-11.03-4-12.61-10.54-.93-3.85-1.97-7.78-2.09-11.7-.54-18.2-.84-36.4-1.1-54.6-.24-16.5-.35-32.99-.5-49.49-.05-5.21.98-9.98,4.01-14.51,2.54-3.79,5.69-6.28,9.97-6.79,8.45-1.01,16.95-1.98,25.45-2.16,16.12-.35,32.25-.08,48.37-.19,9.1-.06,18.2-.43,27.3-.57,4.74-.07,9.48.11,14.22.09,9.66-.04,19.34.11,28.99-.27,21.71-.87,43.21.52,64.42,5.44,3.12.72,6.17,1.84,9.2,2.92,6.84,2.44,11,7.36,12.33,14.41,1.44,7.63,2.86,15.29,3.69,23.01,2.01,18.74.67,37.51-.14,56.27-.4,9.28-.27,18.59-.88,27.85-.28,4.27-1.31,8.63-2.79,12.65-1.83,4.94-5.72,7.94-11.17,8.46-3.2.31-6.42.78-9.62.77-16.12-.08-32.24-.35-48.37-.43-16.31-.08-114.53.73-147.34.36ZM187.9,159.97c13.46,0,26.93-.07,40.39.02,19.72.12,39.45.35,59.17.52,2.08.02,4.17-.04,6.25-.18,4.22-.28,7.34-2.36,8.41-6.46,1.05-4,1.84-8.14,2.06-12.26.43-8.14.36-16.3.54-24.46.33-14.78,1.3-29.58.83-44.33-.35-10.92-2.45-21.8-3.96-32.67-.81-5.84-4.31-9.54-10.02-11.11-1.09-.3-2.17-.69-3.27-.96-21.9-5.33-44.13-6.87-66.6-6.13-9.46.31-18.95.06-28.42.05-7.01,0-14.02-.09-21.03-.05-7.58.04-15.17.24-22.75.25-16.11.03-32.23-.14-48.34.01-6.81.06-13.67.35-20.41,1.22-9.16,1.17-13.28,6.18-13.36,15.3-.05,6.07-.03,12.13.11,18.2.29,11.94.63,23.88,1.08,35.81.67,17.81.93,35.65,2.36,53.4,1.03,12.84,3.55,13.73,15.15,14.39,33.94,1.94,67.87.88,101.81-.56Z"/>
      <path class="cls-3" d="M94.03,134.52c1.78-1.52,3.41-3.28,5.37-4.51,15.09-9.46,29.99-19.26,45.43-28.11,28.77-16.5,57.84-32.46,86.82-48.58,7.04-3.92,16.02-10.5,23.99-11.99.31-.06.65-.09.93.06.9.5.05,1.85-.81,2.4-20.8,13.32-42.7,25.38-64.12,37.83-18.19,10.57-36.43,21.04-54.63,31.6-11.48,6.66-22.89,13.42-34.37,20.06-2.38,1.37-4.77,3.01-7.72,2.56l-.88-1.31Z"/>
      <path class="cls-3" d="M250.07,75.9c.39.83-6.27,6.06-6.87,6.39-4.42,2.47-8.74,5.16-13.13,7.7-9.22,5.33-18.49,10.58-27.7,15.93-5.56,3.23-10.97,6.72-16.52,9.98-5.05,2.98-10.13,5.92-15.32,8.65-1.64.86-3.66,1-5.95,1.59.06-3.63,2.02-4.91,3.87-6.1,8.44-5.43,16.72-11.14,25.44-16.08,14.16-8.02,28.64-15.48,42.93-23.26,4.13-2.24,8.06-5.54,13.05-4.91.1.01.16.05.18.11Z"/>
      <path class="cls-3" d="M197.48,48.71c.84-.08-1.68,4.07-1.89,4.3-1.16,1.25-3.28,2.01-4.73,2.84-4.47,2.56-8.96,5.09-13.43,7.67-11.14,6.42-22.24,12.89-33.4,19.28-6.56,3.75-13.14,7.48-19.82,11.01-1.8.95-4,1.17-6.01,1.73-.25-.46-.5-.93-.74-1.39,1.76-1.52,3.37-3.28,5.32-4.52,7.19-4.55,14.37-9.13,21.77-13.32,15.13-8.58,30.38-16.93,45.61-25.32,2.58-1.42,4.38-2,7.32-2.28Z"/>
    </g>
  </g>
</svg>