<?xml version="1.0" encoding="UTF-8"?>
<svg id="Laag_2" data-name="Laag 2" xmlns="http://www.w3.org/2000/svg" viewBox="0 0 299.12 241.79">
  <defs>
    <style>
      .cls-1 {
        fill: #000;
        stroke-width: 0px;
      }
    </style>
  </defs>
  <g id="Layer_1" data-name="Layer 1">
    <g>
      <path class="cls-1" d="M127.83,12.23c.61-2.8.98-5.24,1.7-7.57C130.37,1.91,132.24.05,135.29,0c2.69-.05,4.92,2.19,5.54,5.57.41,2.21.5,4.47.82,7.42,19.22.42,38.29.31,57.6.26.72-2.35,1.25-4.54,2.06-6.6,1.38-3.51,4.05-5.18,6.93-4.59,2.78.57,4.24,2.66,4.41,6.4.06,1.32,0,2.65,0,4.72,3.89.36,7.78.64,11.65,1.09,5.08.6,10.18,1.09,15.19,2.07,5.23,1.02,5.79,1.85,6.34,7.08,1.86,17.72,2.79,35.6,5.72,53.15,4.14,24.82,7.44,49.91,16.63,73.63,6.18,15.95,13.16,31.45,22.62,45.8,3,4.55,5.19,9.65,7.53,14.61,1.63,3.46.73,5.89-2.98,7.16-3.55,1.21-7.32,2.05-11.06,2.45-25.81,2.78-51.64,5.43-77.47,8.06-22.81,2.33-45.66,4.39-68.44,6.96-14.11,1.59-28.15,3.91-42.21,5.89-1.31.19-2.63.36-3.95.5-6.59.73-12.15-.88-15.1-7.38-2.12-4.66-5.62-6.22-10.47-5.83-10.19.82-20.64.41-30.5,2.64-7.71,1.75-14.9,1.4-22.4.61-5.28-.55-8.4-3.48-9.11-8.59-1.26-9-2.64-18.02-3.24-27.08-1.41-21.21-2.24-42.47-.06-63.67,2.04-19.8,4.58-39.55,7.23-59.27,1.75-12.95,4.06-25.83,6.21-38.73.47-2.8,1.5-5.5,1.9-8.3.6-4.2,3.09-6.38,6.99-7.12,2.78-.52,5.6-.84,8.42-1.07,5.02-.41,10.08.19,15.11-.14,1.87-.12,4.05.09,5.8-.69,2.5-1.1,1.88-3.65,2.01-6.04.14-2.55.73-5.08,1.73-7.43.24-.57.52-1.14,1.01-1.52.38-.3.86-.44,1.32-.57,1.4-.39,2.94-.65,4.26-.04,2.15.99,2.73,3.74,2.88,6.11.17,2.76.13,5.54-.13,8.29,5.1-.72,10.22-.85,15.39-1.12,4.25-.23,45.95-.65,46.35-2.47ZM291.92,212.33c-.17-1.46-.05-2.13-.32-2.54-1.66-2.53-3.39-5.01-5.12-7.5-15.44-22.17-26.51-46.44-33.46-72.43-4.05-15.17-6.51-30.77-9.56-46.21-1.05-5.32-1.73-10.72-2.61-16.32-2.28,0-4.16,0-6.03,0-27.31,0-54.62.02-81.92.01-1.9,0-3.79-.15-5.69-.17-29.96-.19-59.92-.47-89.88-.48-7.12,0-14.24.9-22.06,1.43-1.58,61.61,14.79,117.08,50.83,166.54,12.25-1.5,24.09-2.98,35.93-4.4,15.05-1.79,30.1-3.64,45.17-5.27,22.22-2.4,44.47-4.66,66.71-6.92,9.05-.92,18.11-1.71,27.16-2.57,6.79-.65,13.58-1.29,20.37-1.97,3.36-.34,6.71-.77,10.49-1.21ZM35.99,62.39c6.06-.3,10.95-.57,15.84-.78,8.33-.36,16.66-.99,24.99-.95,37.14.17,74.29.54,111.43.84,1.89.02,3.79.17,5.68.14,14.2-.27,28.4-.55,42.6-.88,1.09-.03,2.18-.44,3.65-.77-.5-11.96-.99-23.8-1.5-35.97-8.9-2.05-17.86-2.32-27.23-2.5-.43,2.73-.79,4.93-1.13,7.14-.4,2.62-.64,5.28-1.24,7.85-.51,2.19-2,3.69-4.41,3.75-2.42.06-3.92-1.34-4.49-3.58-.46-1.82-.7-3.72-.89-5.59-.31-3.13-.5-6.27-.74-9.44h-57.53c-.42,3.11-.75,5.9-1.17,8.68-.31,2.05-.6,4.13-1.14,6.13-.64,2.39-2.15,4-4.85,3.99-2.5,0-4.21-1.58-4.78-4.74-.37-2.04-.31-4.15-.5-6.23-.26-2.74-.57-5.47-.93-8.83-20.62,1-40.58,1.97-60.86,2.96-.5,4.88-.25,10.55-3.37,14.66-.83,1.09-2.09,1.92-3.46,1.95-1.87.04-3.51-1.41-4.28-3.11-.77-1.7-.85-3.63-.92-5.5-.06-1.58-.11-3.16-.17-4.74-.12-3.35-1.97-2.6-4.64-2.6-.71,0-8.14-.18-8.16,0-1.91,12.53-3.78,24.82-5.8,38.11ZM15.3,69.88c-.29,1.39-.61,2.47-.74,3.57-1.29,10.9-2.41,21.83-3.86,32.71-4.66,34.91-4.86,69.85-.99,104.83.39,3.57.79,7.17,1.68,10.63.34,1.33,1.91,2.96,3.22,3.3,4.54,1.18,9.22,1.68,14.14.72-4.6-52.51-6.12-104.79-.58-157.61-3.09.34-5.5.54-7.88.88-1.66.23-3.29.64-4.99.98ZM67.87,221.51c-17.49-28.58-30.07-58.71-35.18-91.71-2.88,10.58.51,85.83,3.84,94.6,10.29-.95,20.55-1.89,31.34-2.89ZM34.56,26.32c-4.91-1.94-8.41.3-12.04.84-.72.11-1.61,1.63-1.75,2.59-1.61,11.22-3.1,22.45-4.6,33.68-.02.12.23.28.7.83,3.9-.65,8.07-1.33,12.25-2.02,1.86-12.23,3.63-23.96,5.45-35.92Z"/>
      <path class="cls-1" d="M127.86,104.95c-4.9.26-9.79.53-14.69.78-5.11.27-10.21.57-15.32.78-1.31.05-2.88.23-3.89-.38-1.28-.77-2.67-2.17-2.94-3.51-.17-.85,1.45-2.7,2.58-3.03,3.07-.9,6.28-1.44,9.47-1.76,9.42-.95,18.86-1.73,28.3-2.55,1.32-.11,2.65-.14,3.98-.09,6.25.24,8.68,4.26,5.37,9.47-2.94,4.61-6.38,8.93-9.79,13.22-2.93,3.69-6.13,7.17-9.62,11.22,1.67.65,2.8,1.1,3.94,1.53,10.57,4.01,18.06,10.83,20.67,22.26,1.69,7.39-.12,13.91-4.79,19.69-6.05,7.5-14.18,11.41-23.59,12.1-5.23.38-10.56-.42-15.82-.94-1.63-.16-3.29-.91-4.74-1.75-2.16-1.25-3.04-3.32-2.63-5.82.42-2.57,2.18-4.11,4.56-4.44,2-.27,4.12.1,6.17.35,3.75.47,7.46,1.34,11.22,1.53,5.14.25,9.64-1.84,13.54-5.06,5.25-4.34,6.73-9.85,4.61-16.34-2.91-8.91-12.02-14.02-21.05-11.8-1.1.27-2.2.68-3.32.76-4.25.31-6.7-3.39-4.73-7.18.6-1.16,1.54-2.16,2.4-3.16,5.67-6.62,11.38-13.2,17.04-19.83,1.31-1.53,2.49-3.17,3.73-4.76-.21-.43-.43-.86-.64-1.29Z"/>
      <path class="cls-1" d="M185.13,114.45c-1.4,2.46-2.18,3.88-3.01,5.26-3.21,5.35-6.39,10.72-9.69,16.01-.79,1.26-1.8,2.64-3.05,3.27-1.15.58-3,.68-4.12.13-.83-.41-1.43-2.25-1.31-3.37.18-1.63.95-3.25,1.71-4.75,5.83-11.47,11.72-22.9,17.6-34.35.43-.84.85-1.69,1.35-2.49,1.21-1.93,2.95-2.91,5.26-2.64,2.64.31,4.05,2.09,4.48,4.48.57,3.16.89,6.37,1.18,9.58,1.19,13.2,2.21,26.41,3.52,39.6.77,7.72,2.07,15.38,2.94,23.09.33,2.98.44,6.07.06,9.03-.31,2.37-2.04,4.1-4.71,4.13-2.36.02-3.93-1.43-4.68-3.51-.57-1.58-.8-3.31-1.02-4.99-1.35-10.13-2.82-20.25-3.94-30.41-.87-7.9-1.3-15.84-1.95-23.77-.08-1.04-.29-2.07-.62-4.31Z"/>
    </g>
    <polygon class="cls-1" points="239.5 16.33 127.83 12.23 41.79 24.27 35.26 68.14 202.3 66.71 240.17 60 239.5 16.33"/>
    <polygon class="cls-1" points="32.69 129.8 28.74 153.4 28.74 225.63 74.24 224.4 40.7 156.29 32.69 129.8"/>
  </g>
</svg>